<?xml version="1.0" encoding="iso-8859-1"?>
<!-- Generator: Adobe Illustrator 16.0.0, SVG Export Plug-In . SVG Version: 6.00 Build 0)  -->
<!DOCTYPE svg PUBLIC "-//W3C//DTD SVG 1.1//EN" "http://www.w3.org/Graphics/SVG/1.1/DTD/svg11.dtd">
<svg version="1.1" id="Capa_1" xmlns="http://www.w3.org/2000/svg" xmlns:xlink="http://www.w3.org/1999/xlink" x="0px" y="0px"
	 width="94px" height="94px" viewBox="0 0 94 94" style="enable-background:new 0 0 94 94;" xml:space="preserve">
<g>
	<g>
		<path d="M47.051,37.59c5.247-0.017,9.426-4.23,9.407-9.489c-0.021-5.259-4.207-9.448-9.456-9.452
			c-5.293-0.005-9.52,4.259-9.479,9.566C37.562,33.454,41.788,37.612,47.051,37.59z"/>
		<path d="M89,0H5C2.239,0,0,2.238,0,5v84c0,2.762,2.239,5,5,5h84c2.762,0,5-2.238,5-5V5C94,2.238,91.762,0,89,0z M47.08,8.766
			c10.699,0.027,19.289,8.781,19.236,19.602c-0.057,10.57-8.787,19.138-19.469,19.102c-10.576-0.036-19.248-8.803-19.188-19.396
			C27.722,17.365,36.4,8.734,47.08,8.766z M68.753,55.072c-2.366,2.431-5.214,4.187-8.378,5.416
			c-2.991,1.156-6.268,1.742-9.512,2.13c0.49,0.534,0.721,0.793,1.025,1.102c4.404,4.425,8.826,8.832,13.215,13.27
			c1.494,1.511,1.81,3.386,0.985,5.145c-0.901,1.925-2.916,3.188-4.894,3.052c-1.252-0.088-2.228-0.711-3.094-1.582
			c-3.324-3.345-6.711-6.627-9.965-10.031c-0.947-0.992-1.403-0.807-2.241,0.056c-3.343,3.442-6.738,6.831-10.155,10.2
			c-1.535,1.514-3.36,1.785-5.143,0.922c-1.892-0.917-3.094-2.848-3.001-4.791c0.064-1.312,0.71-2.314,1.611-3.214
			c4.356-4.351,8.702-8.713,13.05-13.072c0.289-0.288,0.557-0.597,0.976-1.045c-5.929-0.619-11.275-2.077-15.85-5.657
			c-0.567-0.445-1.154-0.875-1.674-1.373c-2.002-1.924-2.203-4.125-0.618-6.396c1.354-1.942,3.632-2.464,5.997-1.349
			c0.459,0.215,0.895,0.486,1.313,0.775c8.528,5.86,20.245,6.023,28.806,0.266c0.847-0.647,1.754-1.183,2.806-1.449
			c2.045-0.525,3.947,0.224,5.045,2.012C70.314,51.496,70.297,53.488,68.753,55.072z"/>
	</g>
</g>
<g>
</g>
<g>
</g>
<g>
</g>
<g>
</g>
<g>
</g>
<g>
</g>
<g>
</g>
<g>
</g>
<g>
</g>
<g>
</g>
<g>
</g>
<g>
</g>
<g>
</g>
<g>
</g>
<g>
</g>
</svg>
