<?xml version="1.0" standalone="no"?>
<!DOCTYPE svg PUBLIC "-//W3C//DTD SVG 20010904//EN"
 "http://www.w3.org/TR/2001/REC-SVG-20010904/DTD/svg10.dtd">
<svg version="1.0" xmlns="http://www.w3.org/2000/svg"
 width="512.000000pt" height="512.000000pt" viewBox="0 0 512.000000 512.000000"
 preserveAspectRatio="xMidYMid meet">

<g transform="translate(0.000000,512.000000) scale(0.100000,-0.100000)"
fill="#000000" stroke="none">
<path d="M2445 5099 c-74 -24 -144 -74 -182 -131 -17 -24 -159 -322 -318 -663
-159 -341 -293 -625 -299 -631 -6 -6 -315 -58 -686 -114 -397 -61 -697 -111
-727 -122 -75 -27 -155 -104 -195 -186 -30 -60 -33 -75 -33 -157 0 -163 -13
-146 552 -726 268 -275 496 -511 506 -524 17 -23 14 -44 -98 -733 -63 -390
-115 -728 -115 -750 0 -59 35 -161 75 -214 87 -119 253 -174 394 -132 29 8
320 164 647 345 l594 331 594 -331 c327 -181 618 -337 647 -345 100 -30 208
-13 301 46 87 55 156 170 165 276 4 43 -24 235 -111 771 -113 690 -116 714
-99 735 19 23 579 600 835 862 132 134 163 173 190 230 30 62 33 78 33 159 0
82 -3 97 -33 157 -40 82 -120 159 -195 186 -31 11 -326 61 -727 122 -371 56
-680 108 -686 114 -6 6 -140 290 -299 631 -158 341 -304 641 -323 668 -89 123
-256 175 -407 126z m254 -1398 c86 -27 139 -61 207 -133 117 -126 175 -281
175 -473 0 -293 -151 -536 -375 -607 -96 -31 -210 -22 -301 22 -101 50 -189
141 -242 250 -56 116 -76 201 -76 335 0 403 302 703 612 606z m410 -1286 c227
-119 409 -353 507 -651 63 -194 106 -501 78 -557 -42 -81 -261 -151 -605 -194
-181 -22 -723 -25 -894 -5 -274 33 -458 76 -569 135 -88 47 -90 51 -83 230 17
444 166 772 434 957 75 53 212 120 244 120 10 0 96 -100 204 -235 102 -129
190 -233 195 -230 4 2 83 115 175 249 l167 244 39 -14 c22 -7 71 -30 108 -49z"/>
</g>
</svg>
