<?xml version="1.0" encoding="utf-8"?>
<svg viewBox="0 0 320 320" width="320" height="320" xmlns="http://www.w3.org/2000/svg">
  <ellipse style="fill: rgb(229, 71, 87); fill-rule: nonzero;" cx="160" cy="160" rx="160" ry="160" />
  <path d="M 269.799 134.982 C 269.335 133.558 268.103 132.52 266.618 132.302 L 195.382 121.95 L 163.522 57.398 C 162.86 56.052 161.491 55.201 159.994 55.201 C 158.497 55.201 157.124 56.052 156.466 57.398 L 124.604 121.952 L 53.366 132.306 C 51.883 132.522 50.653 133.558 50.186 134.987 C 49.724 136.409 50.107 137.975 51.181 139.02 L 102.733 189.268 L 90.561 260.22 C 90.308 261.698 90.915 263.19 92.123 264.073 C 93.34 264.962 94.952 265.076 96.272 264.373 L 159.994 230.877 L 223.71 264.373 C 224.284 264.677 224.917 264.826 225.545 264.826 C 226.361 264.826 227.173 264.572 227.86 264.073 C 229.073 263.19 229.68 261.698 229.425 260.22 L 217.256 189.272 L 268.807 139.02 C 269.878 137.968 270.264 136.406 269.799 134.982 Z" style="fill: rgb(255, 255, 255);" />
</svg>
