<?xml version="1.0" encoding="UTF-8"?>
<!DOCTYPE svg PUBLIC "-//W3C//DTD SVG 1.1//EN" "http://www.w3.org/Graphics/SVG/1.1/DTD/svg11.dtd">
<svg xmlns="http://www.w3.org/2000/svg" version="1.1" width="512px" height="512px" style="shape-rendering:geometricPrecision; text-rendering:geometricPrecision; image-rendering:optimizeQuality; fill-rule:evenodd; clip-rule:evenodd" xmlns:xlink="http://www.w3.org/1999/xlink">
<g><path style="opacity:1" fill="#6af138" d="M 232.5,-0.5 C 247.833,-0.5 263.167,-0.5 278.5,-0.5C 333.255,4.88745 381.255,25.5541 422.5,61.5C 422.973,62.9063 423.973,63.573 425.5,63.5C 433.167,70.5 440.5,77.8333 447.5,85.5C 447.427,87.0269 448.094,88.0269 449.5,88.5C 485.446,129.745 506.113,177.745 511.5,232.5C 511.5,247.833 511.5,263.167 511.5,278.5C 506.113,333.255 485.446,381.255 449.5,422.5C 448.094,422.973 447.427,423.973 447.5,425.5C 440.5,433.167 433.167,440.5 425.5,447.5C 423.973,447.427 422.973,448.094 422.5,449.5C 420.451,452.55 417.784,454.883 414.5,456.5C 412.973,456.427 411.973,457.094 411.5,458.5C 382.074,482.041 348.741,497.875 311.5,506C 300.424,508.254 289.424,510.087 278.5,511.5C 263.167,511.5 247.833,511.5 232.5,511.5C 186.512,507.063 144.845,491.396 107.5,464.5C 107.027,463.094 106.027,462.427 104.5,462.5C 98.5622,458.894 93.2288,454.561 88.5,449.5C 88.0269,448.094 87.0269,447.427 85.5,447.5C 77.8333,440.5 70.5,433.167 63.5,425.5C 63.573,423.973 62.9063,422.973 61.5,422.5C 58.4503,420.451 56.117,417.784 54.5,414.5C 54.573,412.973 53.9063,411.973 52.5,411.5C 28.9585,382.074 13.1252,348.741 5,311.5C 2.74641,300.424 0.913081,289.424 -0.5,278.5C -0.5,263.167 -0.5,247.833 -0.5,232.5C 4.88689,177.746 25.5536,129.746 61.5,88.5C 62.9063,88.0269 63.573,87.0269 63.5,85.5C 70.5,77.8333 77.8333,70.5 85.5,63.5C 87.0269,63.573 88.0269,62.9063 88.5,61.5C 97.9334,52.617 108.267,44.9504 119.5,38.5C 121.027,38.573 122.027,37.9063 122.5,36.5C 125.008,34.0764 128.008,32.4097 131.5,31.5C 133.027,31.573 134.027,30.9063 134.5,29.5C 165.193,12.9943 197.86,2.99429 232.5,-0.5 Z"/></g>
<g><path style="opacity:1" fill="#c8a14b" d="M 134.5,29.5 C 134.027,30.9063 133.027,31.573 131.5,31.5C 131.973,30.0937 132.973,29.427 134.5,29.5 Z"/></g>
<g><path style="opacity:1" fill="#c29e51" d="M 122.5,36.5 C 122.027,37.9063 121.027,38.573 119.5,38.5C 119.973,37.0937 120.973,36.427 122.5,36.5 Z"/></g>
<g><path style="opacity:0.643" fill="#e83f46" d="M 88.5,61.5 C 88.0269,62.9063 87.0269,63.573 85.5,63.5C 85.9731,62.0937 86.9731,61.427 88.5,61.5 Z"/></g>
<g><path style="opacity:0.031" fill="#e93a4b" d="M 422.5,61.5 C 424.027,61.427 425.027,62.0937 425.5,63.5C 423.973,63.573 422.973,62.9063 422.5,61.5 Z"/></g>
<g><path style="opacity:0.655" fill="#e83e46" d="M 447.5,85.5 C 448.906,85.9731 449.573,86.9731 449.5,88.5C 448.094,88.0269 447.427,87.0269 447.5,85.5 Z"/></g>
<g><path style="opacity:0.522" fill="#e93f46" d="M 63.5,85.5 C 63.573,87.0269 62.9063,88.0269 61.5,88.5C 61.427,86.9731 62.0937,85.9731 63.5,85.5 Z"/></g>
<g><path style="opacity:1" fill="#fefefe" d="M 253.5,87.5 C 256.505,87.253 259.005,88.253 261,90.5C 277.833,124.833 294.667,159.167 311.5,193.5C 349.369,199.934 387.369,205.767 425.5,211C 431.42,212.59 432.92,216.09 430,221.5C 402.667,248.167 375.333,274.833 348,301.5C 353.617,339.536 359.784,377.536 366.5,415.5C 366.831,421.339 364.164,423.839 358.5,423C 324.13,405.149 289.797,387.316 255.5,369.5C 221.203,387.316 186.87,405.149 152.5,423C 149.044,423.855 146.544,422.689 145,419.5C 144.333,416.833 144.333,414.167 145,411.5C 151.658,374.886 157.658,338.22 163,301.5C 135.333,274.5 107.667,247.5 80,220.5C 78.4563,215.377 80.2897,212.211 85.5,211C 123.631,205.767 161.631,199.934 199.5,193.5C 216.333,159.167 233.167,124.833 250,90.5C 251.145,89.3636 252.312,88.3636 253.5,87.5 Z"/></g>
<g><path style="opacity:0.394" fill="#ea545e" d="M 52.5,411.5 C 53.9063,411.973 54.573,412.973 54.5,414.5C 53.0937,414.027 52.427,413.027 52.5,411.5 Z"/></g>
<g><path style="opacity:0.02" fill="#e1344e" d="M 61.5,422.5 C 62.9063,422.973 63.573,423.973 63.5,425.5C 62.0937,425.027 61.427,424.027 61.5,422.5 Z"/></g>
<g><path style="opacity:0.027" fill="#e63f41" d="M 449.5,422.5 C 449.573,424.027 448.906,425.027 447.5,425.5C 447.427,423.973 448.094,422.973 449.5,422.5 Z"/></g>
<g><path style="opacity:0.502" fill="#ea3f47" d="M 85.5,447.5 C 87.0269,447.427 88.0269,448.094 88.5,449.5C 86.9731,449.573 85.9731,448.906 85.5,447.5 Z"/></g>
<g><path style="opacity:0.004" fill="#ee3937" d="M 425.5,447.5 C 425.027,448.906 424.027,449.573 422.5,449.5C 422.973,448.094 423.973,447.427 425.5,447.5 Z"/></g>
<g><path style="opacity:0.008" fill="#f06168" d="M 414.5,456.5 C 414.027,457.906 413.027,458.573 411.5,458.5C 411.973,457.094 412.973,456.427 414.5,456.5 Z"/></g>
<g><path style="opacity:0.718" fill="#ec3f48" d="M 104.5,462.5 C 106.027,462.427 107.027,463.094 107.5,464.5C 105.973,464.573 104.973,463.906 104.5,462.5 Z"/></g>
</svg>
