<?xml version="1.0" standalone="no"?>
<!DOCTYPE svg PUBLIC "-//W3C//DTD SVG 20010904//EN"
 "http://www.w3.org/TR/2001/REC-SVG-20010904/DTD/svg10.dtd">
<svg version="1.0" xmlns="http://www.w3.org/2000/svg"
 width="700.000000pt" height="700.000000pt" viewBox="0 0 700.000000 700.000000"
 preserveAspectRatio="xMidYMid meet">
<metadata>
Created by potrace 1.14, written by Peter Selinger 2001-2017
</metadata>
<g transform="translate(0.000000,700.000000) scale(0.100000,-0.100000)"
fill="#000000" stroke="none">
<path d="M3205 6989 c-599 -51 -1176 -257 -1674 -596 -684 -466 -1188 -1168
-1405 -1958 -77 -283 -114 -533 -123 -835 -28 -970 334 -1883 1018 -2569 1260
-1265 3266 -1380 4659 -268 670 535 1127 1304 1269 2137 37 217 46 331 46 600
0 426 -49 733 -177 1115 -390 1162 -1373 2045 -2568 2304 -332 73 -715 98
-1045 70z m348 -1221 c14 -13 179 -337 371 -728 191 -387 348 -705 349 -706 1
-1 349 -52 772 -114 424 -61 785 -116 803 -121 38 -12 52 -35 52 -82 0 -38
-21 -60 -782 -802 -299 -291 -367 -362 -363 -379 26 -114 264 -1552 260 -1567
-10 -32 -46 -59 -78 -59 -19 0 -275 130 -733 370 l-704 370 -582 -306 c-321
-168 -638 -335 -704 -370 -74 -39 -134 -64 -153 -64 -34 0 -67 27 -76 62 -4
17 234 1454 260 1564 4 18 -94 118 -559 570 -310 302 -571 563 -580 581 -15
29 -15 36 -2 67 11 27 23 37 53 45 21 6 382 61 803 122 420 60 765 111 767
112 1 1 158 319 348 707 196 397 358 715 372 728 13 12 37 22 53 22 16 0 40
-10 53 -22z"/>
</g>
</svg>
